<?xml version="1.0" encoding="UTF-8" standalone="no"?>
<!DOCTYPE svg PUBLIC "-//W3C//DTD SVG 1.1//EN"
 "http://www.w3.org/Graphics/SVG/1.1/DTD/svg11.dtd">
<!-- Generated by graphviz version 2.36.0 (20140111.2315)
 -->
<!-- Title: controllers_diagram Pages: 1 -->
<svg width="630pt" height="597pt"
 viewBox="0.00 0.00 630.00 597.00" xmlns="http://www.w3.org/2000/svg" xmlns:xlink="http://www.w3.org/1999/xlink">
<g id="graph0" class="graph" transform="scale(1 1) rotate(0) translate(4 593)">
<title>controllers_diagram</title>
<polygon fill="none" stroke="none" points="-4,4 -4,-593 626,-593 626,4 -4,4"/>
<!-- _diagram_info -->
<g id="node1" class="node"><title>_diagram_info</title>
<text text-anchor="start" x="314" y="-63.6" font-family="Times,serif" font-size="13.00">Controllers diagram</text>
<text text-anchor="start" x="314" y="-49.6" font-family="Times,serif" font-size="13.00">Date: Sep 04 2016 &#45; 01:41</text>
<text text-anchor="start" x="314" y="-35.6" font-family="Times,serif" font-size="13.00">Migration version: 20160805153231</text>
<text text-anchor="start" x="314" y="-21.6" font-family="Times,serif" font-size="13.00">Generated by RailRoady 1.5.1</text>
<text text-anchor="start" x="314" y="-7.6" font-family="Times,serif" font-size="13.00">http://railroady.prestonlee.com</text>
</g>
<!-- UsersController -->
<g id="node2" class="node"><title>UsersController</title>
<path fill="none" stroke="black" d="M174,-342.5C174,-342.5 253,-342.5 253,-342.5 259,-342.5 265,-348.5 265,-354.5 265,-354.5 265,-573.5 265,-573.5 265,-579.5 259,-585.5 253,-585.5 253,-585.5 174,-585.5 174,-585.5 168,-585.5 162,-579.5 162,-573.5 162,-573.5 162,-354.5 162,-354.5 162,-348.5 168,-342.5 174,-342.5"/>
<text text-anchor="middle" x="213.5" y="-570.3" font-family="Times,serif" font-size="14.00">UsersController</text>
<polyline fill="none" stroke="black" points="162,-562.5 265,-562.5 "/>
<text text-anchor="start" x="170" y="-547.3" font-family="Times,serif" font-size="14.00">admin_user</text>
<text text-anchor="start" x="170" y="-532.3" font-family="Times,serif" font-size="14.00">correct_user</text>
<text text-anchor="start" x="170" y="-517.3" font-family="Times,serif" font-size="14.00">create</text>
<text text-anchor="start" x="170" y="-502.3" font-family="Times,serif" font-size="14.00">destroy</text>
<text text-anchor="start" x="170" y="-487.3" font-family="Times,serif" font-size="14.00">edit</text>
<text text-anchor="start" x="170" y="-472.3" font-family="Times,serif" font-size="14.00">index</text>
<text text-anchor="start" x="170" y="-457.3" font-family="Times,serif" font-size="14.00">new</text>
<text text-anchor="start" x="170" y="-442.3" font-family="Times,serif" font-size="14.00">show</text>
<text text-anchor="start" x="170" y="-427.3" font-family="Times,serif" font-size="14.00">update</text>
<polyline fill="none" stroke="black" points="162,-419.5 265,-419.5 "/>
<polyline fill="none" stroke="black" points="162,-395.5 265,-395.5 "/>
<text text-anchor="start" x="170" y="-380.3" font-family="Times,serif" font-size="14.00">_layout</text>
<text text-anchor="start" x="170" y="-365.3" font-family="Times,serif" font-size="14.00">set_user</text>
<text text-anchor="start" x="170" y="-350.3" font-family="Times,serif" font-size="14.00">user_params</text>
</g>
<!-- GivenAnswersController -->
<g id="node3" class="node"><title>GivenAnswersController</title>
<path fill="none" stroke="black" d="M318,-108.5C318,-108.5 446,-108.5 446,-108.5 452,-108.5 458,-114.5 458,-120.5 458,-120.5 458,-309.5 458,-309.5 458,-315.5 452,-321.5 446,-321.5 446,-321.5 318,-321.5 318,-321.5 312,-321.5 306,-315.5 306,-309.5 306,-309.5 306,-120.5 306,-120.5 306,-114.5 312,-108.5 318,-108.5"/>
<text text-anchor="middle" x="382" y="-306.3" font-family="Times,serif" font-size="14.00">GivenAnswersController</text>
<polyline fill="none" stroke="black" points="306,-298.5 458,-298.5 "/>
<text text-anchor="start" x="314" y="-283.3" font-family="Times,serif" font-size="14.00">create</text>
<text text-anchor="start" x="314" y="-268.3" font-family="Times,serif" font-size="14.00">destroy</text>
<text text-anchor="start" x="314" y="-253.3" font-family="Times,serif" font-size="14.00">edit</text>
<text text-anchor="start" x="314" y="-238.3" font-family="Times,serif" font-size="14.00">index</text>
<text text-anchor="start" x="314" y="-223.3" font-family="Times,serif" font-size="14.00">new</text>
<text text-anchor="start" x="314" y="-208.3" font-family="Times,serif" font-size="14.00">show</text>
<text text-anchor="start" x="314" y="-193.3" font-family="Times,serif" font-size="14.00">update</text>
<polyline fill="none" stroke="black" points="306,-185.5 458,-185.5 "/>
<polyline fill="none" stroke="black" points="306,-161.5 458,-161.5 "/>
<text text-anchor="start" x="314" y="-146.3" font-family="Times,serif" font-size="14.00">_layout</text>
<text text-anchor="start" x="314" y="-131.3" font-family="Times,serif" font-size="14.00">given_answer_params</text>
<text text-anchor="start" x="314" y="-116.3" font-family="Times,serif" font-size="14.00">set_given_answer</text>
</g>
<!-- SessionsController -->
<g id="node4" class="node"><title>SessionsController</title>
<path fill="none" stroke="black" d="M12,-18.5C12,-18.5 107,-18.5 107,-18.5 113,-18.5 119,-24.5 119,-30.5 119,-30.5 119,-129.5 119,-129.5 119,-135.5 113,-141.5 107,-141.5 107,-141.5 12,-141.5 12,-141.5 6,-141.5 0,-135.5 0,-129.5 0,-129.5 0,-30.5 0,-30.5 0,-24.5 6,-18.5 12,-18.5"/>
<text text-anchor="middle" x="59.5" y="-126.3" font-family="Times,serif" font-size="14.00">SessionsController</text>
<polyline fill="none" stroke="black" points="0,-118.5 119,-118.5 "/>
<text text-anchor="start" x="8" y="-103.3" font-family="Times,serif" font-size="14.00">create</text>
<text text-anchor="start" x="8" y="-88.3" font-family="Times,serif" font-size="14.00">destroy</text>
<text text-anchor="start" x="8" y="-73.3" font-family="Times,serif" font-size="14.00">new</text>
<polyline fill="none" stroke="black" points="0,-65.5 119,-65.5 "/>
<polyline fill="none" stroke="black" points="0,-41.5 119,-41.5 "/>
<text text-anchor="start" x="8" y="-26.3" font-family="Times,serif" font-size="14.00">_layout</text>
</g>
<!-- QuizzesController -->
<g id="node5" class="node"><title>QuizzesController</title>
<path fill="none" stroke="black" d="M174,-36.5C174,-36.5 266,-36.5 266,-36.5 272,-36.5 278,-42.5 278,-48.5 278,-48.5 278,-297.5 278,-297.5 278,-303.5 272,-309.5 266,-309.5 266,-309.5 174,-309.5 174,-309.5 168,-309.5 162,-303.5 162,-297.5 162,-297.5 162,-48.5 162,-48.5 162,-42.5 168,-36.5 174,-36.5"/>
<text text-anchor="middle" x="220" y="-294.3" font-family="Times,serif" font-size="14.00">QuizzesController</text>
<polyline fill="none" stroke="black" points="162,-286.5 278,-286.5 "/>
<text text-anchor="start" x="170" y="-271.3" font-family="Times,serif" font-size="14.00">create</text>
<text text-anchor="start" x="170" y="-256.3" font-family="Times,serif" font-size="14.00">destroy</text>
<text text-anchor="start" x="170" y="-241.3" font-family="Times,serif" font-size="14.00">edit</text>
<text text-anchor="start" x="170" y="-226.3" font-family="Times,serif" font-size="14.00">index</text>
<text text-anchor="start" x="170" y="-211.3" font-family="Times,serif" font-size="14.00">new</text>
<text text-anchor="start" x="170" y="-196.3" font-family="Times,serif" font-size="14.00">publish</text>
<text text-anchor="start" x="170" y="-181.3" font-family="Times,serif" font-size="14.00">show</text>
<text text-anchor="start" x="170" y="-166.3" font-family="Times,serif" font-size="14.00">show_results</text>
<text text-anchor="start" x="170" y="-151.3" font-family="Times,serif" font-size="14.00">take_quiz</text>
<text text-anchor="start" x="170" y="-136.3" font-family="Times,serif" font-size="14.00">update</text>
<polyline fill="none" stroke="black" points="162,-128.5 278,-128.5 "/>
<polyline fill="none" stroke="black" points="162,-104.5 278,-104.5 "/>
<text text-anchor="start" x="170" y="-89.3" font-family="Times,serif" font-size="14.00">_layout</text>
<text text-anchor="start" x="170" y="-74.3" font-family="Times,serif" font-size="14.00">correct_user</text>
<text text-anchor="start" x="170" y="-59.3" font-family="Times,serif" font-size="14.00">quiz_params</text>
<text text-anchor="start" x="170" y="-44.3" font-family="Times,serif" font-size="14.00">set_quiz</text>
</g>
<!-- ApplicationController -->
<g id="node6" class="node"><title>ApplicationController</title>
<path fill="none" stroke="black" d="M498,-108.5C498,-108.5 610,-108.5 610,-108.5 616,-108.5 622,-114.5 622,-120.5 622,-120.5 622,-205.5 622,-205.5 622,-211.5 616,-217.5 610,-217.5 610,-217.5 498,-217.5 498,-217.5 492,-217.5 486,-211.5 486,-205.5 486,-205.5 486,-120.5 486,-120.5 486,-114.5 492,-108.5 498,-108.5"/>
<text text-anchor="middle" x="554" y="-202.3" font-family="Times,serif" font-size="14.00">ApplicationController</text>
<polyline fill="none" stroke="black" points="486,-194.5 622,-194.5 "/>
<polyline fill="none" stroke="black" points="486,-170.5 622,-170.5 "/>
<polyline fill="none" stroke="black" points="486,-146.5 622,-146.5 "/>
<text text-anchor="start" x="494" y="-131.3" font-family="Times,serif" font-size="14.00">_layout</text>
<text text-anchor="start" x="494" y="-116.3" font-family="Times,serif" font-size="14.00">logged_in_user</text>
</g>
<!-- ResultsController -->
<g id="node7" class="node"><title>ResultsController</title>
<path fill="none" stroke="black" d="M426,-360.5C426,-360.5 514,-360.5 514,-360.5 520,-360.5 526,-366.5 526,-372.5 526,-372.5 526,-576.5 526,-576.5 526,-582.5 520,-588.5 514,-588.5 514,-588.5 426,-588.5 426,-588.5 420,-588.5 414,-582.5 414,-576.5 414,-576.5 414,-372.5 414,-372.5 414,-366.5 420,-360.5 426,-360.5"/>
<text text-anchor="middle" x="470" y="-573.3" font-family="Times,serif" font-size="14.00">ResultsController</text>
<polyline fill="none" stroke="black" points="414,-565.5 526,-565.5 "/>
<text text-anchor="start" x="422" y="-550.3" font-family="Times,serif" font-size="14.00">create</text>
<text text-anchor="start" x="422" y="-535.3" font-family="Times,serif" font-size="14.00">destroy</text>
<text text-anchor="start" x="422" y="-520.3" font-family="Times,serif" font-size="14.00">edit</text>
<text text-anchor="start" x="422" y="-505.3" font-family="Times,serif" font-size="14.00">index</text>
<text text-anchor="start" x="422" y="-490.3" font-family="Times,serif" font-size="14.00">info</text>
<text text-anchor="start" x="422" y="-475.3" font-family="Times,serif" font-size="14.00">new</text>
<text text-anchor="start" x="422" y="-460.3" font-family="Times,serif" font-size="14.00">show</text>
<text text-anchor="start" x="422" y="-445.3" font-family="Times,serif" font-size="14.00">update</text>
<polyline fill="none" stroke="black" points="414,-437.5 526,-437.5 "/>
<polyline fill="none" stroke="black" points="414,-413.5 526,-413.5 "/>
<text text-anchor="start" x="422" y="-398.3" font-family="Times,serif" font-size="14.00">_layout</text>
<text text-anchor="start" x="422" y="-383.3" font-family="Times,serif" font-size="14.00">result_params</text>
<text text-anchor="start" x="422" y="-368.3" font-family="Times,serif" font-size="14.00">set_result</text>
</g>
<!-- StaticPagesController -->
<g id="node8" class="node"><title>StaticPagesController</title>
<path fill="none" stroke="black" d="M12,-180.5C12,-180.5 122,-180.5 122,-180.5 128,-180.5 134,-186.5 134,-192.5 134,-192.5 134,-306.5 134,-306.5 134,-312.5 128,-318.5 122,-318.5 122,-318.5 12,-318.5 12,-318.5 6,-318.5 0,-312.5 0,-306.5 0,-306.5 0,-192.5 0,-192.5 0,-186.5 6,-180.5 12,-180.5"/>
<text text-anchor="middle" x="67" y="-303.3" font-family="Times,serif" font-size="14.00">StaticPagesController</text>
<polyline fill="none" stroke="black" points="0,-295.5 134,-295.5 "/>
<text text-anchor="start" x="8" y="-280.3" font-family="Times,serif" font-size="14.00">about</text>
<text text-anchor="start" x="8" y="-265.3" font-family="Times,serif" font-size="14.00">contact</text>
<text text-anchor="start" x="8" y="-250.3" font-family="Times,serif" font-size="14.00">help</text>
<text text-anchor="start" x="8" y="-235.3" font-family="Times,serif" font-size="14.00">home</text>
<polyline fill="none" stroke="black" points="0,-227.5 134,-227.5 "/>
<polyline fill="none" stroke="black" points="0,-203.5 134,-203.5 "/>
<text text-anchor="start" x="8" y="-188.3" font-family="Times,serif" font-size="14.00">_layout</text>
</g>
</g>
</svg>
