<?xml version="1.0" encoding="UTF-8" standalone="no"?>
<!DOCTYPE svg PUBLIC "-//W3C//DTD SVG 1.1//EN"
 "http://www.w3.org/Graphics/SVG/1.1/DTD/svg11.dtd">
<!-- Generated by graphviz version 2.36.0 (20140111.2315)
 -->
<!-- Title: models_diagram Pages: 1 -->
<svg width="327pt" height="374pt"
 viewBox="0.00 0.00 327.00 374.00" xmlns="http://www.w3.org/2000/svg" xmlns:xlink="http://www.w3.org/1999/xlink">
<g id="graph0" class="graph" transform="scale(1 1) rotate(0) translate(4 370)">
<title>models_diagram</title>
<polygon fill="none" stroke="none" points="-4,4 -4,-370 323,-370 323,4 -4,4"/>
<!-- _diagram_info -->
<g id="node1" class="node"><title>_diagram_info</title>
<text text-anchor="start" x="7" y="-351.6" font-family="Times,serif" font-size="13.00">Models diagram</text>
<text text-anchor="start" x="7" y="-337.6" font-family="Times,serif" font-size="13.00">Date: Sep 04 2016 &#45; 01:41</text>
<text text-anchor="start" x="7" y="-323.6" font-family="Times,serif" font-size="13.00">Migration version: 20160805153231</text>
<text text-anchor="start" x="7" y="-309.6" font-family="Times,serif" font-size="13.00">Generated by RailRoady 1.5.1</text>
<text text-anchor="start" x="7" y="-295.6" font-family="Times,serif" font-size="13.00">http://railroady.prestonlee.com</text>
</g>
<!-- Answer -->
<g id="node2" class="node"><title>Answer</title>
<ellipse fill="none" stroke="black" cx="182" cy="-90" rx="38.0212" ry="18"/>
<text text-anchor="middle" x="182" y="-86.3" font-family="Times,serif" font-size="14.00">Answer</text>
</g>
<!-- GivenAnswer -->
<g id="node6" class="node"><title>GivenAnswer</title>
<ellipse fill="none" stroke="black" cx="248" cy="-18" rx="59.1941" ry="18"/>
<text text-anchor="middle" x="248" y="-14.3" font-family="Times,serif" font-size="14.00">GivenAnswer</text>
</g>
<!-- Answer&#45;&gt;GivenAnswer -->
<g id="edge1" class="edge"><title>Answer&#45;&gt;GivenAnswer</title>
<path fill="none" stroke="#453457" d="M202.665,-67.0823C210.255,-59.0322 218.862,-49.9036 226.522,-41.7795"/>
<ellipse fill="none" stroke="#453457" cx="199.72" cy="-70.2055" rx="4.00002" ry="4.00002"/>
<ellipse fill="#453457" stroke="#453457" cx="229.418" cy="-38.7077" rx="4.00002" ry="4.00002"/>
</g>
<!-- Quiz -->
<g id="node3" class="node"><title>Quiz</title>
<ellipse fill="none" stroke="black" cx="230" cy="-234" rx="27.4223" ry="18"/>
<text text-anchor="middle" x="230" y="-230.3" font-family="Times,serif" font-size="14.00">Quiz</text>
</g>
<!-- Question -->
<g id="node4" class="node"><title>Question</title>
<ellipse fill="none" stroke="black" cx="193" cy="-162" rx="42.3701" ry="18"/>
<text text-anchor="middle" x="193" y="-158.3" font-family="Times,serif" font-size="14.00">Question</text>
</g>
<!-- Quiz&#45;&gt;Question -->
<g id="edge2" class="edge"><title>Quiz&#45;&gt;Question</title>
<path fill="none" stroke="#f85ef3" d="M217.624,-209.585C214.057,-202.837 210.147,-195.441 206.515,-188.569"/>
<ellipse fill="none" stroke="#f85ef3" cx="219.549" cy="-213.228" rx="4.00002" ry="4.00002"/>
<polygon fill="#f85ef3" stroke="#f85ef3" points="206.465,-188.474 205.77,-177.53 204.129,-184.054 201.792,-179.633 201.792,-179.633 201.792,-179.633 204.129,-184.054 197.814,-181.736 206.465,-188.474 206.465,-188.474"/>
</g>
<!-- Result -->
<g id="node7" class="node"><title>Result</title>
<ellipse fill="none" stroke="black" cx="286" cy="-162" rx="33.2209" ry="18"/>
<text text-anchor="middle" x="286" y="-158.3" font-family="Times,serif" font-size="14.00">Result</text>
</g>
<!-- Quiz&#45;&gt;Result -->
<g id="edge3" class="edge"><title>Quiz&#45;&gt;Result</title>
<path fill="none" stroke="#563583" d="M247.363,-211.296C253.531,-203.586 260.508,-194.865 266.819,-186.976"/>
<ellipse fill="none" stroke="#563583" cx="244.65" cy="-214.688" rx="4.00002" ry="4.00002"/>
<polygon fill="#563583" stroke="#563583" points="266.846,-186.942 276.607,-181.945 269.97,-183.038 273.093,-179.134 273.093,-179.134 273.093,-179.134 269.97,-183.038 269.579,-176.322 266.846,-186.942 266.846,-186.942"/>
</g>
<!-- Question&#45;&gt;Answer -->
<g id="edge4" class="edge"><title>Question&#45;&gt;Answer</title>
<path fill="none" stroke="#bbc988" d="M189.015,-135.64C188.116,-129.92 187.159,-123.828 186.249,-118.042"/>
<ellipse fill="none" stroke="#bbc988" cx="189.66" cy="-139.745" rx="4.00001" ry="4.00001"/>
<polygon fill="#bbc988" stroke="#bbc988" points="186.24,-117.983 189.133,-107.406 185.464,-113.044 184.688,-108.104 184.688,-108.104 184.688,-108.104 185.464,-113.044 180.242,-108.803 186.24,-117.983 186.24,-117.983"/>
</g>
<!-- Question&#45;&gt;GivenAnswer -->
<g id="edge5" class="edge"><title>Question&#45;&gt;GivenAnswer</title>
<path fill="none" stroke="#01ca77" d="M211.275,-138.281C217.718,-129.297 224.476,-118.598 229,-108 237.69,-87.6456 242.558,-62.9191 245.186,-44.6994"/>
<ellipse fill="none" stroke="#01ca77" cx="208.834" cy="-141.573" rx="4.00002" ry="4.00002"/>
<ellipse fill="#01ca77" stroke="#01ca77" cx="245.774" cy="-40.2904" rx="4.00001" ry="4.00001"/>
</g>
<!-- User -->
<g id="node5" class="node"><title>User</title>
<ellipse fill="none" stroke="black" cx="258" cy="-327" rx="26.949" ry="18"/>
<text text-anchor="middle" x="258" y="-323.3" font-family="Times,serif" font-size="14.00">User</text>
</g>
<!-- User&#45;&gt;Quiz -->
<g id="edge6" class="edge"><title>User&#45;&gt;Quiz</title>
<path fill="none" stroke="#aa7283" d="M250.475,-301.543C246.7,-289.274 242.119,-274.388 238.249,-261.809"/>
<ellipse fill="none" stroke="#aa7283" cx="251.688" cy="-305.486" rx="4.00001" ry="4.00001"/>
<polygon fill="#aa7283" stroke="#aa7283" points="238.139,-261.451 239.499,-250.57 236.668,-256.672 235.198,-251.893 235.198,-251.893 235.198,-251.893 236.668,-256.672 230.897,-253.217 238.139,-261.451 238.139,-261.451"/>
</g>
<!-- User&#45;&gt;Result -->
<g id="edge7" class="edge"><title>User&#45;&gt;Result</title>
<path fill="none" stroke="#023518" d="M262.304,-300.945C267.433,-271.085 275.975,-221.36 281.281,-190.473"/>
<ellipse fill="none" stroke="#023518" cx="261.621" cy="-304.922" rx="4.00001" ry="4.00001"/>
<polygon fill="#023518" stroke="#023518" points="281.319,-190.252 287.447,-181.159 282.165,-185.325 283.012,-180.397 283.012,-180.397 283.012,-180.397 282.165,-185.325 278.577,-179.635 281.319,-190.252 281.319,-190.252"/>
</g>
<!-- Result&#45;&gt;GivenAnswer -->
<g id="edge8" class="edge"><title>Result&#45;&gt;GivenAnswer</title>
<path fill="none" stroke="#57fd25" d="M279.372,-136.233C272.64,-111.076 262.241,-72.218 255.283,-46.2145"/>
<ellipse fill="none" stroke="#57fd25" cx="280.458" cy="-140.289" rx="4.00001" ry="4.00001"/>
<polygon fill="#57fd25" stroke="#57fd25" points="255.206,-45.9279 256.968,-35.1045 253.914,-41.0979 252.621,-36.2678 252.621,-36.2678 252.621,-36.2678 253.914,-41.0979 248.274,-37.4311 255.206,-45.9279 255.206,-45.9279"/>
</g>
</g>
</svg>
