<?xml version="1.0" encoding="UTF-8" standalone="no"?>
<!DOCTYPE svg PUBLIC "-//W3C//DTD SVG 1.1//EN"
 "http://www.w3.org/Graphics/SVG/1.1/DTD/svg11.dtd">
<!-- Generated by graphviz version 2.36.0 (20140111.2315)
 -->
<!-- Title: models_diagram Pages: 1 -->
<svg width="494pt" height="928pt"
 viewBox="0.00 0.00 494.00 928.00" xmlns="http://www.w3.org/2000/svg" xmlns:xlink="http://www.w3.org/1999/xlink">
<g id="graph0" class="graph" transform="scale(1 1) rotate(0) translate(4 924)">
<title>models_diagram</title>
<polygon fill="none" stroke="none" points="-4,4 -4,-924 490,-924 490,4 -4,4"/>
<!-- _diagram_info -->
<g id="node1" class="node"><title>_diagram_info</title>
<text text-anchor="start" x="7" y="-860.6" font-family="Times,serif" font-size="13.00">Models diagram</text>
<text text-anchor="start" x="7" y="-846.6" font-family="Times,serif" font-size="13.00">Date: Sep 04 2016 &#45; 01:41</text>
<text text-anchor="start" x="7" y="-832.6" font-family="Times,serif" font-size="13.00">Migration version: 20160805153231</text>
<text text-anchor="start" x="7" y="-818.6" font-family="Times,serif" font-size="13.00">Generated by RailRoady 1.5.1</text>
<text text-anchor="start" x="7" y="-804.6" font-family="Times,serif" font-size="13.00">http://railroady.prestonlee.com</text>
</g>
<!-- Answer -->
<g id="node2" class="node"><title>Answer</title>
<path fill="none" stroke="black" d="M91.5,-188.5C91.5,-188.5 200.5,-188.5 200.5,-188.5 206.5,-188.5 212.5,-194.5 212.5,-200.5 212.5,-200.5 212.5,-297.5 212.5,-297.5 212.5,-303.5 206.5,-309.5 200.5,-309.5 200.5,-309.5 91.5,-309.5 91.5,-309.5 85.5,-309.5 79.5,-303.5 79.5,-297.5 79.5,-297.5 79.5,-200.5 79.5,-200.5 79.5,-194.5 85.5,-188.5 91.5,-188.5"/>
<text text-anchor="middle" x="146" y="-294.3" font-family="Times,serif" font-size="14.00">Answer</text>
<polyline fill="none" stroke="black" points="79.5,-286.5 212.5,-286.5 "/>
<text text-anchor="start" x="87.5" y="-271.3" font-family="Times,serif" font-size="14.00">id :INTEGER</text>
<text text-anchor="start" x="87.5" y="-256.3" font-family="Times,serif" font-size="14.00">content :text</text>
<text text-anchor="start" x="87.5" y="-241.3" font-family="Times,serif" font-size="14.00">answer_type :varchar</text>
<text text-anchor="start" x="87.5" y="-226.3" font-family="Times,serif" font-size="14.00">question_id :integer</text>
<text text-anchor="start" x="87.5" y="-211.3" font-family="Times,serif" font-size="14.00">created_at :datetime</text>
<text text-anchor="start" x="87.5" y="-196.3" font-family="Times,serif" font-size="14.00">updated_at :datetime</text>
</g>
<!-- GivenAnswer -->
<g id="node6" class="node"><title>GivenAnswer</title>
<path fill="none" stroke="black" d="M178.5,-0.5C178.5,-0.5 303.5,-0.5 303.5,-0.5 309.5,-0.5 315.5,-6.5 315.5,-12.5 315.5,-12.5 315.5,-139.5 315.5,-139.5 315.5,-145.5 309.5,-151.5 303.5,-151.5 303.5,-151.5 178.5,-151.5 178.5,-151.5 172.5,-151.5 166.5,-145.5 166.5,-139.5 166.5,-139.5 166.5,-12.5 166.5,-12.5 166.5,-6.5 172.5,-0.5 178.5,-0.5"/>
<text text-anchor="middle" x="241" y="-136.3" font-family="Times,serif" font-size="14.00">GivenAnswer</text>
<polyline fill="none" stroke="black" points="166.5,-128.5 315.5,-128.5 "/>
<text text-anchor="start" x="174.5" y="-113.3" font-family="Times,serif" font-size="14.00">id :INTEGER</text>
<text text-anchor="start" x="174.5" y="-98.3" font-family="Times,serif" font-size="14.00">correct_answer :boolean</text>
<text text-anchor="start" x="174.5" y="-83.3" font-family="Times,serif" font-size="14.00">free_answer :text</text>
<text text-anchor="start" x="174.5" y="-68.3" font-family="Times,serif" font-size="14.00">question_id :integer</text>
<text text-anchor="start" x="174.5" y="-53.3" font-family="Times,serif" font-size="14.00">answer_id :integer</text>
<text text-anchor="start" x="174.5" y="-38.3" font-family="Times,serif" font-size="14.00">result_id :integer</text>
<text text-anchor="start" x="174.5" y="-23.3" font-family="Times,serif" font-size="14.00">created_at :datetime</text>
<text text-anchor="start" x="174.5" y="-8.3" font-family="Times,serif" font-size="14.00">updated_at :datetime</text>
</g>
<!-- Answer&#45;&gt;GivenAnswer -->
<g id="edge1" class="edge"><title>Answer&#45;&gt;GivenAnswer</title>
<path fill="none" stroke="#7adef9" d="M183.124,-181.176C187.178,-173.879 191.338,-166.392 195.478,-158.94"/>
<ellipse fill="none" stroke="#7adef9" cx="181.169" cy="-184.696" rx="4.00002" ry="4.00002"/>
<ellipse fill="#7adef9" stroke="#7adef9" cx="197.663" cy="-155.006" rx="4.00002" ry="4.00002"/>
</g>
<!-- Quiz -->
<g id="node3" class="node"><title>Quiz</title>
<path fill="none" stroke="black" d="M202,-594.5C202,-594.5 320,-594.5 320,-594.5 326,-594.5 332,-600.5 332,-606.5 332,-606.5 332,-703.5 332,-703.5 332,-709.5 326,-715.5 320,-715.5 320,-715.5 202,-715.5 202,-715.5 196,-715.5 190,-709.5 190,-703.5 190,-703.5 190,-606.5 190,-606.5 190,-600.5 196,-594.5 202,-594.5"/>
<text text-anchor="middle" x="261" y="-700.3" font-family="Times,serif" font-size="14.00">Quiz</text>
<polyline fill="none" stroke="black" points="190,-692.5 332,-692.5 "/>
<text text-anchor="start" x="198" y="-677.3" font-family="Times,serif" font-size="14.00">id :INTEGER</text>
<text text-anchor="start" x="198" y="-662.3" font-family="Times,serif" font-size="14.00">name :varchar</text>
<text text-anchor="start" x="198" y="-647.3" font-family="Times,serif" font-size="14.00">created_at :datetime</text>
<text text-anchor="start" x="198" y="-632.3" font-family="Times,serif" font-size="14.00">updated_at :datetime</text>
<text text-anchor="start" x="198" y="-617.3" font-family="Times,serif" font-size="14.00">user_id :integer</text>
<text text-anchor="start" x="198" y="-602.3" font-family="Times,serif" font-size="14.00">publish_string :varchar</text>
</g>
<!-- Question -->
<g id="node4" class="node"><title>Question</title>
<path fill="none" stroke="black" d="M88,-391.5C88,-391.5 204,-391.5 204,-391.5 210,-391.5 216,-397.5 216,-403.5 216,-403.5 216,-500.5 216,-500.5 216,-506.5 210,-512.5 204,-512.5 204,-512.5 88,-512.5 88,-512.5 82,-512.5 76,-506.5 76,-500.5 76,-500.5 76,-403.5 76,-403.5 76,-397.5 82,-391.5 88,-391.5"/>
<text text-anchor="middle" x="146" y="-497.3" font-family="Times,serif" font-size="14.00">Question</text>
<polyline fill="none" stroke="black" points="76,-489.5 216,-489.5 "/>
<text text-anchor="start" x="84" y="-474.3" font-family="Times,serif" font-size="14.00">id :INTEGER</text>
<text text-anchor="start" x="84" y="-459.3" font-family="Times,serif" font-size="14.00">content :text</text>
<text text-anchor="start" x="84" y="-444.3" font-family="Times,serif" font-size="14.00">question_type :varchar</text>
<text text-anchor="start" x="84" y="-429.3" font-family="Times,serif" font-size="14.00">quiz_id :integer</text>
<text text-anchor="start" x="84" y="-414.3" font-family="Times,serif" font-size="14.00">created_at :datetime</text>
<text text-anchor="start" x="84" y="-399.3" font-family="Times,serif" font-size="14.00">updated_at :datetime</text>
</g>
<!-- Quiz&#45;&gt;Question -->
<g id="edge2" class="edge"><title>Quiz&#45;&gt;Question</title>
<path fill="none" stroke="#c1b581" d="M222.772,-587.184C210.692,-566.071 197.329,-542.715 185.184,-521.487"/>
<ellipse fill="none" stroke="#c1b581" cx="224.821" cy="-590.766" rx="4.00002" ry="4.00002"/>
<polygon fill="#c1b581" stroke="#c1b581" points="185.027,-521.212 183.967,-510.297 182.544,-516.872 180.061,-512.532 180.061,-512.532 180.061,-512.532 182.544,-516.872 176.155,-514.767 185.027,-521.212 185.027,-521.212"/>
</g>
<!-- Result -->
<g id="node7" class="node"><title>Result</title>
<path fill="none" stroke="black" d="M246,-346.5C246,-346.5 474,-346.5 474,-346.5 480,-346.5 486,-352.5 486,-358.5 486,-358.5 486,-545.5 486,-545.5 486,-551.5 480,-557.5 474,-557.5 474,-557.5 246,-557.5 246,-557.5 240,-557.5 234,-551.5 234,-545.5 234,-545.5 234,-358.5 234,-358.5 234,-352.5 240,-346.5 246,-346.5"/>
<text text-anchor="middle" x="360" y="-542.3" font-family="Times,serif" font-size="14.00">Result</text>
<polyline fill="none" stroke="black" points="234,-534.5 486,-534.5 "/>
<text text-anchor="start" x="242" y="-519.3" font-family="Times,serif" font-size="14.00">id :INTEGER</text>
<text text-anchor="start" x="242" y="-504.3" font-family="Times,serif" font-size="14.00">number_of_answers :integer</text>
<text text-anchor="start" x="242" y="-489.3" font-family="Times,serif" font-size="14.00">number_of_correct_answers :integer</text>
<text text-anchor="start" x="242" y="-474.3" font-family="Times,serif" font-size="14.00">quiz_id :integer</text>
<text text-anchor="start" x="242" y="-459.3" font-family="Times,serif" font-size="14.00">user_id :integer</text>
<text text-anchor="start" x="242" y="-444.3" font-family="Times,serif" font-size="14.00">created_at :datetime</text>
<text text-anchor="start" x="242" y="-429.3" font-family="Times,serif" font-size="14.00">updated_at :datetime</text>
<text text-anchor="start" x="242" y="-414.3" font-family="Times,serif" font-size="14.00">number_of_questions :integer</text>
<text text-anchor="start" x="242" y="-399.3" font-family="Times,serif" font-size="14.00">number_of_free_answer_questions :integer</text>
<text text-anchor="start" x="242" y="-384.3" font-family="Times,serif" font-size="14.00">number_of_free_answers :integer</text>
<text text-anchor="start" x="242" y="-369.3" font-family="Times,serif" font-size="14.00">link :varchar</text>
<text text-anchor="start" x="242" y="-354.3" font-family="Times,serif" font-size="14.00">total_number_of_correct_answers :integer</text>
</g>
<!-- Quiz&#45;&gt;Result -->
<g id="edge3" class="edge"><title>Quiz&#45;&gt;Result</title>
<path fill="none" stroke="#1a3ae7" d="M294.095,-586.806C297.276,-580.349 300.558,-573.685 303.881,-566.938"/>
<ellipse fill="none" stroke="#1a3ae7" cx="292.203" cy="-590.649" rx="4.00002" ry="4.00002"/>
<polygon fill="#1a3ae7" stroke="#1a3ae7" points="304.013,-566.67 312.469,-559.688 306.222,-562.185 308.432,-557.699 308.432,-557.699 308.432,-557.699 306.222,-562.185 304.395,-555.711 304.013,-566.67 304.013,-566.67"/>
</g>
<!-- Question&#45;&gt;Answer -->
<g id="edge4" class="edge"><title>Question&#45;&gt;Answer</title>
<path fill="none" stroke="#7957c4" d="M146,-382.939C146,-362.568 146,-340.206 146,-319.73"/>
<ellipse fill="none" stroke="#7957c4" cx="146" cy="-387.238" rx="4" ry="4"/>
<polygon fill="#7957c4" stroke="#7957c4" points="146,-319.532 150.5,-309.532 146,-314.532 146,-309.532 146,-309.532 146,-309.532 146,-314.532 141.5,-309.532 146,-319.532 146,-319.532"/>
</g>
<!-- Question&#45;&gt;GivenAnswer -->
<g id="edge5" class="edge"><title>Question&#45;&gt;GivenAnswer</title>
<path fill="none" stroke="#926f4e" d="M188.748,-383.955C201.235,-361.299 213.522,-335.314 221,-310 235.35,-261.423 240.463,-204.855 241.935,-159.622"/>
<ellipse fill="none" stroke="#926f4e" cx="186.649" cy="-387.7" rx="4.00002" ry="4.00002"/>
<ellipse fill="#926f4e" stroke="#926f4e" cx="242.049" cy="-155.6" rx="4" ry="4"/>
</g>
<!-- User -->
<g id="node5" class="node"><title>User</title>
<path fill="none" stroke="black" d="M243,-753C243,-753 379,-753 379,-753 385,-753 391,-759 391,-765 391,-765 391,-907 391,-907 391,-913 385,-919 379,-919 379,-919 243,-919 243,-919 237,-919 231,-913 231,-907 231,-907 231,-765 231,-765 231,-759 237,-753 243,-753"/>
<text text-anchor="middle" x="311" y="-903.8" font-family="Times,serif" font-size="14.00">User</text>
<polyline fill="none" stroke="black" points="231,-896 391,-896 "/>
<text text-anchor="start" x="239" y="-880.8" font-family="Times,serif" font-size="14.00">id :INTEGER</text>
<text text-anchor="start" x="239" y="-865.8" font-family="Times,serif" font-size="14.00">name :varchar</text>
<text text-anchor="start" x="239" y="-850.8" font-family="Times,serif" font-size="14.00">email :varchar</text>
<text text-anchor="start" x="239" y="-835.8" font-family="Times,serif" font-size="14.00">role :integer</text>
<text text-anchor="start" x="239" y="-820.8" font-family="Times,serif" font-size="14.00">created_at :datetime</text>
<text text-anchor="start" x="239" y="-805.8" font-family="Times,serif" font-size="14.00">updated_at :datetime</text>
<text text-anchor="start" x="239" y="-790.8" font-family="Times,serif" font-size="14.00">password_digest :varchar</text>
<text text-anchor="start" x="239" y="-775.8" font-family="Times,serif" font-size="14.00">remember_digest :varchar</text>
<text text-anchor="start" x="239" y="-760.8" font-family="Times,serif" font-size="14.00">admin :boolean</text>
</g>
<!-- User&#45;&gt;Quiz -->
<g id="edge6" class="edge"><title>User&#45;&gt;Quiz</title>
<path fill="none" stroke="#f65f11" d="M285.835,-744.908C284.021,-738.417 282.209,-731.929 280.436,-725.582"/>
<ellipse fill="none" stroke="#f65f11" cx="286.973" cy="-748.982" rx="4.00001" ry="4.00001"/>
<polygon fill="#f65f11" stroke="#f65f11" points="280.379,-725.376 282.022,-714.534 279.034,-720.56 277.688,-715.744 277.688,-715.744 277.688,-715.744 279.034,-720.56 273.354,-716.955 280.379,-725.376 280.379,-725.376"/>
</g>
<!-- User&#45;&gt;Result -->
<g id="edge7" class="edge"><title>User&#45;&gt;Result</title>
<path fill="none" stroke="#a251de" d="M335.507,-744.725C337.602,-735.077 339.493,-725.367 341,-716 348.758,-667.787 353.349,-614.088 356.066,-567.848"/>
<ellipse fill="none" stroke="#a251de" cx="334.575" cy="-748.903" rx="4.00001" ry="4.00001"/>
<polygon fill="#a251de" stroke="#a251de" points="356.07,-567.778 361.127,-558.048 356.352,-562.786 356.635,-557.794 356.635,-557.794 356.635,-557.794 356.352,-562.786 352.142,-557.54 356.07,-567.778 356.07,-567.778"/>
</g>
<!-- Result&#45;&gt;GivenAnswer -->
<g id="edge8" class="edge"><title>Result&#45;&gt;GivenAnswer</title>
<path fill="none" stroke="#7c6e25" d="M324.246,-338.631C306.125,-281.678 284.488,-213.677 267.816,-161.277"/>
<ellipse fill="none" stroke="#7c6e25" cx="325.481" cy="-342.511" rx="4.00001" ry="4.00001"/>
<polygon fill="#7c6e25" stroke="#7c6e25" points="267.794,-161.21 269.05,-150.316 266.278,-156.446 264.762,-151.681 264.762,-151.681 264.762,-151.681 266.278,-156.446 260.474,-153.045 267.794,-161.21 267.794,-161.21"/>
</g>
</g>
</svg>
